<svg xmlns="http://www.w3.org/2000/svg" class="svg-logo" width="2400" height="2400" viewBox="0 0 630 430" style="height: auto;"><rect width="630" height="630" y="-100" rx="0" ry="0" fill="transparent" fill-opacity="0"></rect><g data-element="wrapper" transform="translate(-362.2500164032014 -281.38121719360583) scale(2.15000000000001)"><g ><g data-element="icon" transform="scale(0.08888888888888889) translate(2778.525681789378 2366.7106659653673)"><path id="color_x5F_2_23_" d="M121,210c0-19.882,16.118-36,36-36h264c19.882,0,36,16.118,36,36s-16.118,36-36,36H157    C137.118,246,121,229.882,121,210z M157,486h83.941c6.617,0,12,5.383,12,12c0,19.882,16.118,36,36,36s36-16.118,36-36    c0-46.318-37.683-84-84-84H157c-19.882,0-36,16.118-36,36S137.118,486,157,486z M1,210c0,19.882,16.118,36,36,36h24    c19.882,0,36-16.118,36-36s-16.118-36-36-36H37C17.118,174,1,190.118,1,210z" fill="#8c8c9f" fill-opacity="1"></path> <path id="color_x5F_1_23_" d="M1,330c0-19.882,16.118-36,36-36h412c43.01,0,78-34.991,78-78s-34.99-78-78-78    c-19.882,0-36-16.118-36-36s16.118-36,36-36c82.71,0,150,67.29,150,150s-67.29,150-150,150H37C17.118,366,1,349.882,1,330z M37,486    h24c19.882,0,36-16.118,36-36s-16.118-36-36-36H37c-19.882,0-36,16.118-36,36S17.118,486,37,486z" fill="#4b4a4a" fill-opacity="1"></path></g><path d="M311.96 248.50L311.96 248.50Q311.36 248.50 311.10 248.01Q310.84 247.51 311.05 247.04L311.05 247.04L318.69 228.90Q318.98 228.19 319.68 228.19L319.68 228.19Q320.35 228.19 320.64 228.90L320.64 228.90L328.31 247.07Q328.54 247.56 328.25 248.03Q327.95 248.50 327.40 248.50L327.40 248.50Q327.09 248.50 326.84 248.34Q326.59 248.19 326.44 247.88L326.44 247.88L319.29 230.53L320.09 230.53L312.89 247.88Q312.76 248.19 312.52 248.34Q312.27 248.50 311.96 248.50ZM325.79 243.66L313.67 243.66L314.45 241.92L325.01 241.92L325.79 243.66ZM344.27 248.50L344.27 248.50Q343.80 248.50 343.53 248.23Q343.26 247.95 343.26 247.49L343.26 247.49L343.26 235.29Q343.26 234.82 343.53 234.55Q343.80 234.28 344.27 234.28L344.27 234.28Q344.71 234.28 344.99 234.55Q345.26 234.82 345.26 235.29L345.26 235.29L345.26 247.49Q345.26 247.95 344.99 248.23Q344.71 248.50 344.27 248.50ZM344.25 231.57L344.25 231.57Q343.67 231.57 343.26 231.16Q342.84 230.74 342.84 230.14L342.84 230.14Q342.84 229.49 343.27 229.12Q343.70 228.74 344.27 228.74L344.27 228.74Q344.82 228.74 345.25 229.12Q345.68 229.49 345.68 230.14L345.68 230.14Q345.68 230.74 345.26 231.16Q344.84 231.57 344.25 231.57ZM364.08 239.74L362.94 239.74Q363.02 238.13 363.78 236.85Q364.55 235.58 365.79 234.85Q367.02 234.12 368.53 234.12L368.53 234.12Q369.72 234.12 370.37 234.46Q371.02 234.80 370.87 235.45L370.87 235.45Q370.76 235.84 370.52 235.97Q370.27 236.10 369.92 236.07Q369.57 236.05 369.13 236.02L369.13 236.02Q367.67 235.89 366.54 236.32Q365.41 236.75 364.75 237.63Q364.08 238.52 364.08 239.74L364.08 239.74ZM363.09 248.50L363.09 248.50Q362.63 248.50 362.37 248.24Q362.11 247.98 362.11 247.51L362.11 247.51L362.11 235.27Q362.11 234.80 362.37 234.54Q362.63 234.28 363.09 234.28L363.09 234.28Q363.56 234.28 363.82 234.54Q364.08 234.80 364.08 235.27L364.08 235.27L364.08 247.51Q364.08 247.98 363.82 248.24Q363.56 248.50 363.09 248.50Z" data-element="company-name" data-text-path="" data-text="Air" data-font-family="Comfortaa" fill="#c6c3c3" fill-opacity="1"></path><path d="M336.71 264.59L336.71 264.59Q336.71 264.96 336.45 264.96L336.45 264.96L335.24 264.96Q335.10 264.96 335.00 264.87Q334.89 264.78 334.88 264.65L334.88 264.65L334.37 260.27Q334.28 259.44 334.23 258.64Q334.18 257.83 334.13 256.95L334.13 256.95L334.05 255.91Q334.05 255.88 334.03 255.88Q334.02 255.88 334.01 255.91L334.01 255.91L333.68 257.11Q333.58 257.47 333.45 257.84L333.45 257.84L331.17 264.06Q331.13 264.17 331.02 264.26Q330.91 264.36 330.80 264.36L330.80 264.36L329.65 264.36Q329.42 264.36 329.28 264.07L329.28 264.07Q326.74 258.11 326.58 257.70Q326.41 257.28 326.29 256.91L326.29 256.91L325.96 255.90Q325.95 255.88 325.93 255.88Q325.92 255.88 325.91 255.91L325.91 255.91L325.91 257.09Q325.91 258.65 325.78 260.26L325.78 260.26L325.45 264.65Q325.44 264.77 325.32 264.86Q325.20 264.96 325.07 264.96L325.07 264.96L324.06 264.96Q323.88 264.96 323.77 264.81Q323.65 264.65 323.67 264.43L323.67 264.43L324.55 254.79Q324.60 254.19 324.70 254.02L324.70 254.02Q324.87 253.73 325.31 253.73L325.31 253.73L326.11 253.73Q326.46 253.73 326.60 253.83L326.60 253.83Q326.86 253.99 327.05 254.46L327.05 254.46L330.21 262.15L332.97 254.46Q333.21 253.73 333.79 253.73L333.79 253.73L334.62 253.73Q335.26 253.73 335.37 254.32L335.37 254.32Q335.40 254.51 335.43 254.73L335.43 254.73L336.70 264.44Q336.71 264.51 336.71 264.59ZM344.15 264.57L344.15 264.57Q344.15 264.96 343.77 264.96L343.77 264.96L343.06 264.96Q342.78 264.96 342.72 264.85Q342.66 264.73 342.65 264.64Q342.65 264.55 342.62 264.42L342.62 264.42Q342.58 264.06 342.50 263.64L342.50 263.64Q341.93 264.69 340.70 265.03L340.70 265.03Q340.27 265.14 339.75 265.14Q339.23 265.14 338.71 264.97Q338.19 264.80 337.79 264.46L337.79 264.46Q336.88 263.70 336.88 262.46L336.88 262.46Q336.88 261.11 337.88 260.39L337.88 260.39Q338.70 259.81 339.99 259.81Q341.28 259.81 342.17 260.56L342.17 260.56Q342.19 260.32 342.19 259.94Q342.19 259.57 342.04 259.20Q341.90 258.82 341.63 258.57L341.63 258.57Q341.07 258.08 340.07 258.08L340.07 258.08Q339.18 258.08 338.26 258.57L338.26 258.57Q338.08 258.67 337.95 258.67L337.95 258.67Q337.75 258.67 337.57 258.28L337.57 258.28Q337.37 257.88 337.37 257.71L337.37 257.71Q337.37 257.39 337.86 257.09L337.86 257.09Q338.78 256.51 340.32 256.51L340.32 256.51Q341.73 256.51 342.65 257.28L342.65 257.28Q343.74 258.21 343.74 259.89L343.74 259.89Q343.74 260.64 343.50 261.77L343.50 261.77Q344.12 263.55 344.15 264.57ZM339.25 261.46Q338.95 261.69 338.82 261.91Q338.69 262.12 338.69 262.42Q338.69 262.72 338.80 262.95Q338.90 263.18 339.09 263.33L339.09 263.33Q339.50 263.65 340.00 263.65Q340.50 263.65 340.82 263.53Q341.14 263.41 341.38 263.23L341.38 263.23Q341.88 262.84 341.88 262.40L341.88 262.40Q341.84 261.85 341.28 261.53L341.28 261.53Q340.77 261.24 340.08 261.24L340.08 261.24Q339.55 261.24 339.25 261.46ZM346.59 263.69L346.59 263.69Q346.67 264.42 346.67 265.52L346.67 265.52L346.67 268.55Q346.67 269.09 346.24 269.09L346.24 269.09L345.33 269.09Q344.87 269.09 344.87 268.52L344.87 268.52L344.87 260.41Q344.87 258.35 344.65 257.41L344.65 257.41Q344.62 257.31 344.62 257.14Q344.62 256.98 344.76 256.84Q344.90 256.70 345.11 256.70L345.11 256.70L345.55 256.70Q345.96 256.70 346.13 257.05L346.13 257.05Q346.32 257.46 346.43 258.11L346.43 258.11Q346.94 257.22 347.83 256.81L347.83 256.81Q348.45 256.51 349.26 256.51Q350.06 256.51 350.69 256.83Q351.32 257.14 351.74 257.68L351.74 257.68Q352.56 258.76 352.56 260.56L352.56 260.56Q352.56 262.45 351.63 263.76L351.63 263.76Q350.65 265.14 349.06 265.14L349.06 265.14Q347.41 265.14 346.59 263.69ZM346.50 260.69L346.50 261.09Q346.50 262.15 347.20 262.91L347.20 262.91Q347.87 263.63 348.71 263.63L348.71 263.63Q349.77 263.63 350.29 262.59L350.29 262.59Q350.70 261.77 350.70 260.52L350.70 260.52Q350.70 259.51 350.21 258.81L350.21 258.81Q349.69 258.05 348.83 258.05L348.83 258.05Q347.85 258.05 347.17 258.85L347.17 258.85Q346.50 259.64 346.50 260.69L346.50 260.69ZM355.55 263.64L355.55 263.64Q356.96 263.64 356.96 262.70L356.96 262.70Q356.96 262.18 356.16 261.82L356.16 261.82Q355.82 261.66 355.43 261.53Q355.03 261.40 354.66 261.22Q354.29 261.03 353.98 260.82Q353.66 260.60 353.42 260.32L353.42 260.32Q352.94 259.74 352.94 258.84L352.94 258.84Q352.94 257.74 353.85 257.09L353.85 257.09Q354.67 256.51 355.85 256.51L355.85 256.51Q357.13 256.51 357.99 257.01L357.99 257.01Q358.28 257.19 358.28 257.42L358.28 257.42Q358.28 257.74 358.11 258.12Q357.93 258.51 357.70 258.51Q357.47 258.51 357.29 258.41Q357.10 258.32 356.95 258.25Q356.80 258.18 356.63 258.13L356.63 258.13Q356.26 258.02 355.95 258.02Q355.64 258.02 355.45 258.07Q355.26 258.11 355.11 258.21L355.11 258.21Q354.73 258.43 354.73 258.76Q354.73 259.09 354.88 259.27Q355.03 259.44 355.30 259.59Q355.56 259.74 355.93 259.88L355.93 259.88L356.72 260.21Q357.68 260.63 358.01 260.97L358.01 260.97Q358.67 261.64 358.67 262.53L358.67 262.53Q358.67 263.64 357.91 264.36L357.91 264.36Q357.07 265.14 355.52 265.14L355.52 265.14Q353.94 265.14 353.15 264.53L353.15 264.53Q352.76 264.24 352.76 264.01Q352.76 263.77 352.85 263.59Q352.93 263.40 353.07 263.15Q353.20 262.89 353.43 262.89Q353.66 262.89 353.92 263.10Q354.18 263.31 354.64 263.48Q355.09 263.64 355.55 263.64Z" data-element="slogan" data-text-path="" data-text="Maps" data-font-family="Capriola" fill="#a6a6a6" fill-opacity="1"></path></g></g></svg>